<svg xmlns="http://www.w3.org/2000/svg" viewBox="0 0 26.242 26.242">
  <defs>
    <style>
      .cls-1 {
        fill: #fff;
      }
    </style>
  </defs>
  <g id="Group_540" data-name="Group 540" transform="translate(0 0)">
    <path id="Subtraction_41" data-name="Subtraction 41" class="cls-1" d="M13.121,26.242a13.121,13.121,0,0,1-9.278-22.4A13.121,13.121,0,0,1,22.4,22.4,13.035,13.035,0,0,1,13.121,26.242ZM9.28,6.383a.218.218,0,0,0-.2.2V19.378a.215.215,0,0,0,.2.2h1.008a.185.185,0,0,0,.2-.2V13.7a14.278,14.278,0,0,0,3.8.513,14.718,14.718,0,0,0,3.5-.426l1.31-.352-.1-.1a20.234,20.234,0,0,1-2.266-2.871,15.547,15.547,0,0,0,2.316-3.928l.051-.1-1.31.3a14.719,14.719,0,0,1-3.5.426,14.279,14.279,0,0,1-3.8-.513V6.585a.218.218,0,0,0-.2-.2Z"/>
  </g>
</svg>
