<svg xmlns="http://www.w3.org/2000/svg" viewBox="0 0 26.081 26.082">
  <defs>
    <style>
      .cls-1 {
        fill: #fff;
      }
    </style>
  </defs>
  <g id="Group_538" data-name="Group 538" transform="translate(0 0)">
    <path id="Subtraction_42" data-name="Subtraction 42" class="cls-1" d="M13.041,26.082A13.044,13.044,0,0,1,7.965,1.025,13.044,13.044,0,0,1,18.117,25.057,12.958,12.958,0,0,1,13.041,26.082Zm-.156-10.487a1.658,1.658,0,0,1,1.542.973,1.542,1.542,0,0,1-.327,1.649,1,1,0,0,0-.209,1.021.988.988,0,0,0,.912.514h2.559a1.345,1.345,0,0,0,1.343-1.343V15.851c0-.766.434-1.038.806-1.038a1.012,1.012,0,0,1,.665.271,1.7,1.7,0,0,0,1.111.438A1.564,1.564,0,0,0,22.8,13.867a1.7,1.7,0,0,0-.413-1.276,1.3,1.3,0,0,0-.947-.391,1.741,1.741,0,0,0-1.135.452,1.157,1.157,0,0,1-.71.271.748.748,0,0,1-.578-.253,1.169,1.169,0,0,1-.246-.785V9.326a1.345,1.345,0,0,0-1.343-1.343H14.867a.985.985,0,0,1-.962-.479A1.012,1.012,0,0,1,14.1,6.448a1.6,1.6,0,0,0,.321-1.687,1.719,1.719,0,0,0-3.079.038,1.542,1.542,0,0,0,.327,1.649A1.012,1.012,0,0,1,11.864,7.5a.985.985,0,0,1-.962.479H8.344A1.4,1.4,0,0,0,7,9.326v2.559c0,.694.41,1.005.817,1.005a1.091,1.091,0,0,0,.718-.3,1.7,1.7,0,0,1,1.111-.438A1.564,1.564,0,0,1,11.158,13.8a1.547,1.547,0,0,1-2.622,1.215,1.174,1.174,0,0,0-.721-.273c-.495,0-.814.383-.814.977v2.622a1.426,1.426,0,0,0,1.407,1.407h2.559a.956.956,0,0,0,.939-.5.974.974,0,0,0-.235-1.037,1.6,1.6,0,0,1-.321-1.687A1.642,1.642,0,0,1,12.885,15.595Z" transform="translate(0 0)"/>
  </g>
</svg>
