<svg xmlns="http://www.w3.org/2000/svg" viewBox="0 0 25.141 25.141">
  <defs>
    <style>
      .cls-1 {
        fill: #fff;
      }
    </style>
  </defs>
  <path id="Path_462" data-name="Path 462" class="cls-1" d="M27.443,3l-.223.042L19.761,5.933,11.38,3,3.5,5.654a.7.7,0,0,0-.5.67V27.443a.692.692,0,0,0,.7.7l.223-.042,7.458-2.891,8.38,2.933,7.878-2.654a.7.7,0,0,0,.5-.67V3.7A.692.692,0,0,0,27.443,3ZM12.777,6.45l5.587,1.955V24.691l-5.587-1.955ZM5.793,7.833l4.19-1.411V22.764l-4.19,1.62ZM25.348,23.308l-4.19,1.411V8.391l4.19-1.62Z" transform="translate(-3 -3)"/>
</svg>
