<svg xmlns="http://www.w3.org/2000/svg" xmlns:xlink="http://www.w3.org/1999/xlink" viewBox="0 0 288 800">
  <defs>
    <style>
      .cls-1 {
        fill: #00053e;
      }

      .cls-2 {
        clip-path: url(#clip-path);
      }

      .cls-3 {
        opacity: 0.028;
      }

      .cls-4 {
        fill: #fff;
      }
    </style>
    <clipPath id="clip-path">
      <rect id="Rectangle_1522" data-name="Rectangle 1522" class="cls-1" width="288" height="800"/>
    </clipPath>
  </defs>
  <g id="Mask_Group_43" data-name="Mask Group 43" class="cls-2">
    <g id="Map" class="cls-3" transform="translate(-21.346)">
      <path id="Intersection_3" data-name="Intersection 3" class="cls-4" d="M290.268,808.532l-11.822-33.719-21.915,6.015-3.092,27.7h-4.91l7.73-69.352-13.368,1.64L218.338,808.44H208.062l12.913-35.633-29.463-6.926-16.1,41.284,3.182,1.366h-8.912l8-20.5-32.009-12.3a362.08,362.08,0,0,1-15.914,32.808H118.49c14.549-25.152,25.644-53.586,33.191-76.733l-68.929-5.287,13.64,82.02H86.572l-4.365-26.155L42.649,789.12l-.364,5.286,8.275,14.126H44.923l-3.273-5.558-.364,5.558H36.466l1.363-18.59L8.913,794.862l1,13.578H.183L0,805.912V650.2l8.639-29.583L0,619.88v-9.695l11.368.953L22.644,572.5,0,561.553V543.729l6,2.887L26.917,472.8,7.185,461.679,0,483.8V468.16l2.638-8.121L0,459.6v-4.882l4.183.677,14.1-43.379L0,404.549v-5.275l19.733,8.09,25.28-77.646L0,334.015V324.2l67.838-6.422-48.56-55.864c-3.318.317-12.6,1.252-19.279,1.851v-4.754l17.733-1.745-1.818-27.249L0,232.054V215.736l14.1-1.756-3.274-20.687c-3.964.624-7.681,1.213-10.822,1.7V190l10.094-1.538L6.73,167.594,0,168.479v-4.89l5.911-.825L1.364,134.148,0,134.281v-9.689l38.012-3.659-6-42.833C21.889,80.2,11.116,81.8,0,83V73.273q2.793-.3,5.548-.641L2.729,34.083,0,33.752V23.916l1.91.234L.183.091h9.73l5.274,71.175c5.638-.912,11.094-1.823,16.368-3.008L36.466.091h4.819L36.466,67.073c14.368-3.463,26.917-8.111,36.556-14.4.636-.455,1.364-1,2.092-1.458L45.014.091h5.639L63.474,21.872,87.754,7.381,86.572.091h9.821l4.365,26.338A201.764,201.764,0,0,0,118.49.091h11.276Q127.72,3.918,125.4,7.745l36.465,12.668L169.778.091h8.912l25.463,10.662L208.062.091h10.276l-.819,2.369,29.737,9.205L248.529.091h4.91l-1.545,13.032,23.279,7.29c3.182-.911,11.185-3.19,20.188-5.65L290.177,0h5.093c1.91,5.377,3.546,10.206,4.728,13.487,7.457-2.1,15-4.192,20.642-5.742L316.913.091h18.005l1.637,3.19,7.035-2.039V11.323l-2.761.8,2.761,5.648v36.7L325.1,16.677l-21.825,6.106,22.28,66.345,18.039-3.441v4.862l-54.049,10.244L292,120.113l51.594-8.043V121.9l-6.035.943,6.035,38.961v28.034l-21.4,2.631-9.367,33.173,17.005,14.49L343.59,228.3v12.788l-3.125,2.691,3.125,3.168v13.835L333.1,250.16l-38.921,33.446a27.98,27.98,0,0,0,2.364,2.279c10.994,9.469,30.416,21,47.047,30.146v11.005c-4.8-2.6-9.936-5.45-15.129-8.434l-9.185,23.148,24.314,8.823v5.149l-26.041-9.507-10.64,26.7,36.68,14.553v5.261l-38.5-15.258-18.005,45.2,43.922,14.673,12.583-39.293v53.02l-11.128,34.938,11.128,10.134V502.7l-12.764-11.589L318.913,528.48c5.841,1.131,14.409,2.767,24.677,4.735v9.878l-27.678-5.318L300.544,585.8l43.046,8.732v9.917L297.544,595.1l-17.1,53.313a37.692,37.692,0,0,1,4.729,5.377l58.414-38.43v5.791L287.722,657.98a34.141,34.141,0,0,1,3.911,12.849l46.923,8.02,5.035-28.619v39.326l-19.767-3.325-8.275,16.4,28.041,4.031v4.907l-30.315-4.382L299.089,735.26l12.731,25.973,31.77-9.1v10.025l-27.5,7.911,8.457,17.224,19.039-6v5.228l-16.856,5.24,8.184,16.768H316.913l-19.1-39-14.732,4.009c2.092,6.015,7.73,22.145,12.277,35ZM6,755.857l2.546,34.175,72.84-12.485L76.478,748.2Zm141.588,15.31,31.919,12.212,7.275-18.591-33.556-7.928C151.5,761.6,149.591,766.337,147.59,771.167Zm113.579-32.625-4.092,37.091,38.557-10.571L281.357,735.9ZM196.7,757.224l27.644,6.47,8.73-24.241-17.459-7.2Zm-40.1-9.478,35.01,8.2,20.37-26.884L192.33,695.527l-20.005-.547A536.3,536.3,0,0,1,156.593,747.746ZM3.365,719.586l1.91,26.519,69.657-7.564-4.092-24.7ZM244.8,735.808l34.375-4.466-11.458-23.33a35.107,35.107,0,0,1-11.185,1.823,18.255,18.255,0,0,1-2.273-.091Zm-26.1-7.565,16.1,6.653,9.912-27.248a32.382,32.382,0,0,1-7.547-3.737Zm62.746-28.888,14.913,30.438,22.552-44.473-27.644-4.739A35.142,35.142,0,0,1,281.448,699.355ZM81.934,721.5l71.294,5.468c4.274-13.579,7.366-24.88,9.184-32.261l-85.3-2.461Zm133.312,3.463,18.187-23.968a32.34,32.34,0,0,1-4.273-4.374l-31.1-.912ZM3.092,714.847l67.019-5.741-2.819-17.042L1.274,690.15Zm234.251-40.462a19.188,19.188,0,1,0,19.188-19.229A19.212,19.212,0,0,0,237.344,674.384Zm-39.375,5.194,23.825.638a24.871,24.871,0,0,1-.454-5.832,38.433,38.433,0,0,1,.454-5.651l-20.188-9.751Zm-40.921-22.145L154.41,678.3l38.557,1.094,4-22.6-30.554-14.764ZM77.3,676.115l72.293,2.1,2.456-19.685L83.479,643.672Zm-74.2-2.1,64.382,1.823,2.364-12.395-61.745-6.47Zm39.1-18.409,28.554,3.008,11-57.6L58.018,589.539ZM9.549,652.239l27.826,2.916,16.187-67.711-22.1-10.663Zm117.944-4.01,26.007,5.65,8.457-14.035-23.826-11.482Zm54.471-16.586,45.923,22.145a35.606,35.606,0,0,1,11.549-10.3l-7.547-30.165Zm-97.574,7.2,38.193,8.293,11.185-20.961L90.755,605.4Zm153.59-67.53,17.1,67.711h1.455a33.753,33.753,0,0,1,9.639,1.367L285.176,580.7l-8.639-21.416Zm-88.116,44.746,26.1,12.667,33.283-12.212-6.275-22.6Zm48.1-58.052L213.7,614.692l17-6.2-14.458-57.5Zm-93.755,36,39.829,19.229,18.642-7.746-15.823-27.8Zm47.2-18.135,15.732,27.7,34.465-14.4-8.184-29.435Zm-81.661,1.458L92.21,588.172l46.923-17.953L84.662,532.763Zm192.694-65.981,25.1,62.153,28.645-89.584ZM14.914,550.9l46.1,22.236,15.1-45.293L27.736,505.606Zm104.849-41.01-5.729,37.183,30.554,21.052,18.551-7.109,14.641-74.82c-13-4.557-28.1-9.842-41.285-14.49Zm99.121-14.673,18.005,71.448,37.921-11.847-27.372-67.712Zm-50.378,63.7,45.468-17.406L202.152,494.67c-4.91-1.732-11.822-4.192-19.733-6.926ZM86.3,528.025l23.37,16.039,5-32.717L92.664,508.7Zm-57.29-27.157L77.66,523.194l5.547-16.677-49.833-20.87Zm222.612-16.313,9,22.328,56.653-28.889-50.833-13.032ZM94.392,504.148l21.643,2.552,15.914-36.545c-10.094-3.554-18.642-6.561-23.553-8.293ZM59.927,486.285,86.3,497.312l12.821-38.458-26.189-8.111Zm157.684,4.192L247.347,482l13.913-18.409-53.834-13.762Zm-63.929-17.862,46.923,16.5-11.094-44.017-26.735-8.02ZM36.1,476.261l19.461,8.111,26.19-71.448L56.2,405.268Zm73.75-19.048,39.284,13.762,9-35.36L120.764,424.5ZM303.909,464.5l17,4.375,8.639-26.885-17.914-6.015ZM50.288,329.172,8.73,456.941l19.552,11.027,39.83-140.436ZM273.627,456.849l25.644,6.562,7.821-28.889-21.734-7.291Zm-30.463-59.874-17.824,10.3,11.276,39.916,27.553,7.017,24.371-61.15ZM74.75,446.1c5.456,1.732,18.824,5.924,26.007,8.111l10.822-32.443L86.39,414.291Zm125.582-24.332,4.365,17.406,26.371,6.744-10.094-36.088Zm-56.108-.365,42.649,12.668-10.64-42.1ZM96.12,350.132,83.752,403.355l55.017,16.4,36.193-33.081-9.731-38.549Zm93.937,30.712,9.094,36L238.8,393.968c-4.729-6.379-18.551-24.789-22.825-30.53ZM58.837,395.973l20.278,6.015L87.026,367.9,68.476,361.98Zm161.139-35.36,23.552,31.441,46.923-4.009.909-2.278-48.014-40.919Zm54.652,4.557,18.642,15.857,15.55-39.187-11.731-8.567Zm-89.209-2.552,3.365,13.214,24.188-16.312-8.456-10.662ZM78.478,326.529l-8.73,30.712,18.369,5.923L97.029,324.8ZM232.07,328.99l38.83,32.99,22.28-31.623-31.464-22.784ZM208.426,345.94c2.729,3.463,6.548,8.293,8.548,10.845l22.461-15.219-11.458-9.752ZM167.5,290.9l15.459,61.515,42.831-30.894-11.822-39.551Zm-65.382,33.446L97.211,345.3l66.748-2.005-6.093-24.242ZM265.9,304.566,310.73,337.1,320,313.68c-11.367-6.744-22.28-13.944-29.737-20.414a45.746,45.746,0,0,1-3.637-3.646ZM71.385,252.712l7.547,64.066,22.552-2.187-8.547-65.069Zm154.046,34.083,8.639,28.8,21.824-15.674-9-23.422ZM106.3,314.135l49.2-4.648-2.364-9.478-51.015-17.862Zm-85.57-84.662,1.91,28.98L68.567,311.31,58.29,224.825Zm214.973,4.374,24.279,63.064,20.824-15.037c-12.64-19.229-22.916-51.125-28.463-70.628ZM97.757,248.792l3.637,27.978,50.287,17.589-13-51.673ZM148.045,213.8l18.187,72.451,46.286-9.022-20.733-68.8Zm69.02,45.293,6.911,22.965,21.189-10.207L232.251,238.4ZM273.082,243.6c4.456,11.938,9.639,23.694,15.277,32.352l15.186-13.124-13.459-25.79Zm21.552-8.475,12.73,24.423L326.1,243.325,309.638,229.29Zm-93.119-27.8,13.822,46.021,35.375-48.118c-.364-1.367-.727-2.643-1-3.828ZM67.929,223.64l2.911,24.242,66.656-9.842L131.858,215.8Zm191.512-23.422c2.364,8.932,6.638,23.7,12,38.732l36.738-14.216,8.912-31.623Zm-243.8-7.654,3.274,20.778,36.647-4.466-5.092-21.69C43.286,188.28,28.645,190.559,15.641,192.564Zm49.469,15.128,65.929-8.111-2.546-9.661L60.2,186.731ZM146.5,197.667l40.376-4.921L162.5,153.559Zm19.188-48.118,26.462,42.559,15.55-1.913.091-47.207Zm-26.917,41.1,24.553-67.438-46.2-16.313Zm73.93-48.391-.091,47.389,51.561-6.288-5.456-48.3Zm-201.15,24.7,3.273,20.778,34.556-5.286L44.741,162.49Zm68.2-40.281,10,56.594L127.311,185l-15.823-61.332Zm-32.737,3.1,12.1,52.037,25.644,1.184L74.841,127.13Zm219.611,32.808,2.273,20.141,29.009-3.554-3.091-20.049Zm33.283-33.9,7.638,49.3,32.919-4.01-7.73-50.4ZM6.184,133.691l4.547,28.434,32.828-4.374-6.275-27.067Zm257.259.729,2.637,23.331,28.008-3.372-3.728-24.151Zm-95.847,5.1,41.377-6.47,17.277-61.971L196.6,59.874Zm46.651-7.291,25.189-3.919,11.731-47.754L230.8,72.814Zm30.281-4.648,37.83-5.924-3.91-30.621-22.825-8.657ZM39.74,99.061l3,21.416,66.2-6.379-7.185-27.431Zm101.485,11.21,23.734,8.384,10.094-27.8L149.591,80.288Zm-25.553-9.113,21.006,7.473,8.457-30.256L105.486,61.788ZM280.447,29.071,288.9,95.963l31.828-6.015C317,79.1,303.181,37.729,298.544,24.059ZM78.3,60.876c-11,7.109-25.28,12.395-41.558,16.313L39.1,94.322l61.473-12.3L92.3,49.94A105.594,105.594,0,0,1,78.3,60.876Zm72.658,14.673L176.689,86.3l16.278-44.838-29.645-10.3Zm81.388-7.291L277.81,85.574l-3.729-29.527-31.009-11.3ZM100.212,42.012l3.637,14.035,42.558,17.68,12.368-44.108-38.648-13.4A188.387,188.387,0,0,1,100.212,42.012Zm98.029,13.123,29.645,11.3,11.64-25.7,5.82-19.5-31.191-9.661ZM244.8,40.19l28.645,10.389-2.728-21.416-20.733-6.47ZM65.93,26.064,79.115,48.391A121.833,121.833,0,0,0,92.573,36l-3.91-23.512Zm100.484-4.1,29.918,10.389,6.184-17.042L173.688,3.281ZM334.918,808.531ZM96.393,808.531ZM50.561,808.531ZM9.913,808.44Z" transform="translate(1.101)"/>
    </g>
  </g>
</svg>
