<svg xmlns="http://www.w3.org/2000/svg" viewBox="0 0 26.081 26.082">
  <defs>
    <style>
      .cls-1 {
        fill: #fff;
      }
    </style>
  </defs>
  <g id="Group_795" data-name="Group 795" transform="translate(0 0)">
    <path id="Subtraction_43" data-name="Subtraction 43" class="cls-1" d="M13.041,26.082A13.041,13.041,0,0,1,3.82,3.82,13.041,13.041,0,0,1,22.262,22.262,12.954,12.954,0,0,1,13.041,26.082ZM7.745,15.39a38.557,38.557,0,0,0,1.973,3.525,5.687,5.687,0,0,0,1.615,1.743,7.019,7.019,0,0,0,2.588.319,5.707,5.707,0,0,0,2.428-.319,10.8,10.8,0,0,0,1.148-4.59,43.748,43.748,0,0,1,1.772-7.355l.006-.019c.074-.239.122-.4.135-.448,0-.026.007-.055.012-.084a.865.865,0,0,0-.072-.66.462.462,0,0,0-.366-.133,1.378,1.378,0,0,0-.254.027c-.477.068-.758.921-1.114,2a12.11,12.11,0,0,1-1.266,2.929,1.106,1.106,0,0,0-.263-.569.776.776,0,0,0-.587-.238.948.948,0,0,0-.892.808,1.576,1.576,0,0,0-.368-.806.822.822,0,0,0-.611-.256c-.84,0-.85,1.094-.85,1.1A62.878,62.878,0,0,0,11.5,5.95a.929.929,0,0,0-.771-.526.387.387,0,0,0-.121.016c-.1.034-.3.1-.3,1.445,0,.73.109,2.459.206,3.984v.014c.072,1.133.133,2.112.133,2.421,0,.121,0,.257.007.4.015.566.032,1.205-.149,1.391a.162.162,0,0,1-.119.052.234.234,0,0,1-.08-.015A6.583,6.583,0,0,1,8.528,13.3a2.585,2.585,0,0,0-1.913-1.148.773.773,0,0,0-.656.236.545.545,0,0,0-.067.444,10.6,10.6,0,0,1,1.233,1.4c.107.152.332.591.618,1.147v0Z" transform="translate(0 0)"/>
  </g>
</svg>
