<svg xmlns="http://www.w3.org/2000/svg" viewBox="0 0 22.029 22.803">
  <defs>
    <style>
      .cls-1 {
        fill: none;
      }

      .cls-2 {
        fill: #00053e;
      }
    </style>
  </defs>
  <g id="outline-share-24px" transform="translate(0 0)">
    <path id="Path_457" data-name="Path 457" class="cls-1" d="M0,0H22.029V22.8H0Z"/>
    <path id="Path_458" data-name="Path 458" class="cls-2" d="M16.768,15.378a2.624,2.624,0,0,0-1.8.732L8.425,12.167a3.214,3.214,0,0,0,.083-.665,3.214,3.214,0,0,0-.083-.665L14.9,6.931a2.692,2.692,0,0,0,1.872.77,2.8,2.8,0,0,0,2.754-2.85,2.755,2.755,0,1,0-5.507,0,3.214,3.214,0,0,0,.083.665L7.626,9.421a2.692,2.692,0,0,0-1.872-.77,2.852,2.852,0,0,0,0,5.7,2.692,2.692,0,0,0,1.872-.77l6.535,3.953a2.77,2.77,0,0,0-.073.618,2.682,2.682,0,1,0,2.68-2.774Zm0-11.478a.951.951,0,1,1-.918.95A.937.937,0,0,1,16.768,3.9ZM5.754,12.452a.951.951,0,1,1,.918-.95A.937.937,0,0,1,5.754,12.452Zm11.014,6.67a.951.951,0,1,1,.918-.95A.937.937,0,0,1,16.768,19.122Z" transform="translate(-0.246 -0.1)"/>
  </g>
</svg>
